<svg width="32" height="32" viewBox="0 0 32 32" fill="none" xmlns="http://www.w3.org/2000/svg">
  <defs>
    <linearGradient id="bgGradient" x1="0%" y1="0%" x2="100%" y2="100%">
      <stop offset="0%" style="stop-color:#8B5CF6;stop-opacity:1" />
      <stop offset="100%" style="stop-color:#3B82F6;stop-opacity:1" />
    </linearGradient>
    <linearGradient id="eyeGradient" x1="0%" y1="0%" x2="100%" y2="100%">
      <stop offset="0%" style="stop-color:#06B6D4;stop-opacity:1" />
      <stop offset="100%" style="stop-color:#8B5CF6;stop-opacity:1" />
    </linearGradient>
  </defs>
  <rect width="32" height="32" rx="8" fill="url(#bgGradient)"/>
  <path d="M8 12C8 10.8954 8.89543 10 10 10H22C23.1046 10 24 10.8954 24 12V20C24 21.1046 23.1046 22 22 22H10C8.89543 22 8 21.1046 8 20V12Z" fill="white"/>
  <circle cx="12" cy="15" r="1.5" fill="url(#eyeGradient)"/>
  <circle cx="20" cy="15" r="1.5" fill="url(#eyeGradient)"/>
  <path d="M14 18H18" stroke="url(#eyeGradient)" stroke-width="1.5" stroke-linecap="round"/>
  <path d="M16 6V8" stroke="white" stroke-width="2" stroke-linecap="round"/>
  <path d="M10 8L11 9" stroke="white" stroke-width="1.5" stroke-linecap="round"/>
  <path d="M22 8L21 9" stroke="white" stroke-width="1.5" stroke-linecap="round"/>
</svg>